
<svg xmlns="http://www.w3.org/2000/svg" viewBox="0 0 632.47 226.76">
    <defs>
        <style>
            .cls-1 {
                fill: #1F2937;
            }
.bounce {
     animation: bounce 2s infinite;

 }

 @keyframes bounce {
     0% {
         transform: translateY(0);
     }

     50% {
         transform: translateY(-10px);
     }

     100% {
         transform: translateY(0);
     }
 }
        </style>
    </defs>
    <g id="Layer_2" data-name="Layer 2">
        <g id="Layer_1-2" data-name="Layer 1">
            <path class="cls-1"
                d="M313.78,160.74a3,3,0,0,1-3.11-3.12v-81a3,3,0,0,1,3.11-3.12h33.9q16.08,0,25.37,7.42t9.28,21q0,8.85-4.3,15a27,27,0,0,1-11.28,9.22L384,156.75a3.09,3.09,0,0,1,.38,1.37,2.52,2.52,0,0,1-.81,1.81,2.67,2.67,0,0,1-1.94.81H365.13a4.61,4.61,0,0,1-3.49-1.19,9.51,9.51,0,0,1-1.62-2.18L345.81,130H333v27.67a3,3,0,0,1-3.12,3.12ZM333,112.38h14.45q5.86,0,8.79-2.87a10.49,10.49,0,0,0,2.93-7.85,11,11,0,0,0-2.8-7.85c-1.87-2-4.85-3-8.92-3H333Z" />
            <path class="cls-1"
                d="M418.23,160.74a3,3,0,0,1-3.12-3.12V93.06H392.93a2.94,2.94,0,0,1-2.25-.93,3.12,3.12,0,0,1-.87-2.19V76.61a3,3,0,0,1,3.12-3.12H460a3,3,0,0,1,3.11,3.12V89.94a3.12,3.12,0,0,1-.87,2.19,2.93,2.93,0,0,1-2.24.93H437.79v64.56a3,3,0,0,1-3.11,3.12Z" />
            <path class="cls-1"
                d="M477.55,160.74a3,3,0,0,1-3.12-3.12v-81a3,3,0,0,1,.88-2.24,3,3,0,0,1,2.24-.88h34.9a46.81,46.81,0,0,1,18,3.18,26.11,26.11,0,0,1,12,9.54q4.3,6.35,4.3,16.07t-4.3,15.83a25.2,25.2,0,0,1-12,9.22,49.31,49.31,0,0,1-18,3H497.62v27.29a2.93,2.93,0,0,1-.94,2.24,3.22,3.22,0,0,1-2.31.88Zm19.69-47.61h14.58a12.61,12.61,0,0,0,8.54-2.75c2.12-1.82,3.18-4.61,3.18-8.35a12,12,0,0,0-2.74-8q-2.74-3.24-9-3.24H497.24Z" />
            <path class="cls-1"
                d="M595.2,162a48.73,48.73,0,0,1-19.63-3.67,27.75,27.75,0,0,1-13-11.35q-4.62-7.65-4.61-19.5V76.61a3,3,0,0,1,3.11-3.12h16.08a3,3,0,0,1,3.12,3.12v50.72q0,8.12,3.92,12.16t11,4q7,0,10.91-4T610,127.33V76.61a2.94,2.94,0,0,1,.94-2.24,3.1,3.1,0,0,1,2.18-.88h16.2a3.1,3.1,0,0,1,2.18.88,2.91,2.91,0,0,1,.94,2.24v50.85q0,11.83-4.61,19.5a27.87,27.87,0,0,1-13,11.35A48.56,48.56,0,0,1,595.2,162Z" />
            <path class="cls-1"
                d="M314.59,193.12a.58.58,0,0,1-.41-.15.59.59,0,0,1-.15-.41V177.84a.58.58,0,0,1,.15-.41.58.58,0,0,1,.41-.16h6.13a7.13,7.13,0,0,1,4.59,1.35,5.15,5.15,0,0,1,.9,6.53,4.93,4.93,0,0,1-2,1.68l3.11,5.57a.5.5,0,0,1,.07.25.46.46,0,0,1-.15.33.44.44,0,0,1-.34.14h-3a.83.83,0,0,1-.63-.21,1.6,1.6,0,0,1-.3-.4l-2.57-5h-2.32v5a.56.56,0,0,1-.16.41.55.55,0,0,1-.4.15Zm3.47-8.78h2.62a2.24,2.24,0,0,0,1.59-.52,1.94,1.94,0,0,0,.53-1.43,2,2,0,0,0-.51-1.43,2.13,2.13,0,0,0-1.61-.54h-2.62Z" />
            <path class="cls-1"
                d="M335.56,193.35a8.91,8.91,0,0,1-3.61-.68,5.27,5.27,0,0,1-2.39-2,6.93,6.93,0,0,1-.95-3.43c0-.65,0-1.3,0-1.95s0-1.3,0-2a7,7,0,0,1,1-3.43,5.49,5.49,0,0,1,2.4-2.09,9.5,9.5,0,0,1,7.16,0,5.57,5.57,0,0,1,2.43,2.09,6.77,6.77,0,0,1,.94,3.43c0,.67.05,1.32.05,2s0,1.3-.05,1.95a6.93,6.93,0,0,1-.94,3.43,5.32,5.32,0,0,1-2.39,2A8.94,8.94,0,0,1,335.56,193.35Zm0-3.26a2.7,2.7,0,0,0,1.95-.73,3.21,3.21,0,0,0,.8-2.3c0-.67,0-1.3,0-1.88s0-1.2,0-1.84a4,4,0,0,0-.4-1.73,2.28,2.28,0,0,0-1-1,3,3,0,0,0-1.4-.31,3,3,0,0,0-1.38.31,2.38,2.38,0,0,0-1,1,4,4,0,0,0-.4,1.73c0,.64,0,1.25,0,1.84s0,1.21,0,1.88a3.26,3.26,0,0,0,.81,2.3A2.62,2.62,0,0,0,335.56,190.09Z" />
            <path class="cls-1"
                d="M343.49,193.12a.41.41,0,0,1-.32-.14.46.46,0,0,1-.15-.33,1.25,1.25,0,0,1,0-.21l5.3-14.53a.9.9,0,0,1,.28-.44.87.87,0,0,1,.6-.2h3.34a.84.84,0,0,1,.59.2.85.85,0,0,1,.29.44l5.27,14.53a.46.46,0,0,1,.05.21.5.5,0,0,1-.5.47h-2.77A.66.66,0,0,1,355,193a.82.82,0,0,1-.21-.3l-.88-2.31h-6l-.86,2.31a.92.92,0,0,1-.2.3.7.7,0,0,1-.54.17Zm5.3-6H353l-2.12-6Z" />
            <path class="cls-1"
                d="M360.65,193.12a.52.52,0,0,1-.56-.56V177.84a.58.58,0,0,1,.15-.41.6.6,0,0,1,.41-.16h5.86a8.93,8.93,0,0,1,3.77.72,5.29,5.29,0,0,1,2.39,2.08,7,7,0,0,1,.9,3.38c0,.67,0,1.25,0,1.75s0,1.07,0,1.72a7.6,7.6,0,0,1-.89,3.49,4.89,4.89,0,0,1-2.32,2.05,9.4,9.4,0,0,1-3.73.66Zm3.47-3.26h2.39a3.76,3.76,0,0,0,1.61-.3,2,2,0,0,0,1-1,3.94,3.94,0,0,0,.35-1.72c0-.43.05-.83.06-1.17s0-.7,0-1,0-.73-.06-1.15a3.05,3.05,0,0,0-.8-2.25,3.13,3.13,0,0,0-2.24-.72h-2.28Z" />
            <path class="cls-1"
                d="M383.58,193.12a.58.58,0,0,1-.41-.15.59.59,0,0,1-.15-.41V180.83h-4a.53.53,0,0,1-.4-.17.55.55,0,0,1-.16-.4v-2.42a.54.54,0,0,1,.16-.41.56.56,0,0,1,.4-.16h12.13a.55.55,0,0,1,.57.57v2.42a.59.59,0,0,1-.16.4.55.55,0,0,1-.41.17h-4v11.73a.56.56,0,0,1-.16.41.55.55,0,0,1-.4.15Z" />
            <path class="cls-1"
                d="M399.45,193.35a8.86,8.86,0,0,1-3.6-.68,5.29,5.29,0,0,1-2.4-2,6.93,6.93,0,0,1-.94-3.43c0-.65,0-1.3,0-1.95s0-1.3,0-2a7,7,0,0,1,1-3.43,5.44,5.44,0,0,1,2.4-2.09,9.5,9.5,0,0,1,7.16,0,5.54,5.54,0,0,1,2.42,2.09,6.77,6.77,0,0,1,.95,3.43c0,.67,0,1.32,0,2s0,1.3,0,1.95a6.93,6.93,0,0,1-.95,3.43,5.27,5.27,0,0,1-2.39,2A8.88,8.88,0,0,1,399.45,193.35Zm0-3.26a2.66,2.66,0,0,0,1.95-.73,3.17,3.17,0,0,0,.8-2.3c0-.67.05-1.3.05-1.88s0-1.2-.05-1.84a4.17,4.17,0,0,0-.39-1.73,2.3,2.3,0,0,0-1-1,3,3,0,0,0-1.4-.31,2.91,2.91,0,0,0-1.37.31,2.32,2.32,0,0,0-1,1,4,4,0,0,0-.41,1.73c0,.64,0,1.25,0,1.84s0,1.21,0,1.88a3.35,3.35,0,0,0,.81,2.3A2.66,2.66,0,0,0,399.45,190.09Z" />
            <path class="cls-1"
                d="M413.52,193.12a.52.52,0,0,1-.56-.56V177.84a.58.58,0,0,1,.15-.41.6.6,0,0,1,.41-.16h6.31a8.51,8.51,0,0,1,3.26.58,4.75,4.75,0,0,1,2.17,1.73,5.2,5.2,0,0,1,.77,2.92,5,5,0,0,1-.77,2.88,4.65,4.65,0,0,1-2.17,1.68,8.94,8.94,0,0,1-3.26.54h-2.68v5a.57.57,0,0,1-.17.41.6.6,0,0,1-.42.15Zm3.56-8.65h2.64a2.26,2.26,0,0,0,1.54-.49,1.9,1.9,0,0,0,.58-1.52,2.16,2.16,0,0,0-.5-1.45,2,2,0,0,0-1.62-.59h-2.64Z" />
            <path class="cls-1"
                d="M434.35,193.35a8.72,8.72,0,0,1-3.55-.67,5,5,0,0,1-2.35-2.06,6.77,6.77,0,0,1-.84-3.54v-9.24a.54.54,0,0,1,.16-.41.56.56,0,0,1,.4-.16h2.91a.55.55,0,0,1,.57.57v9.22a3,3,0,0,0,.71,2.2,3,3,0,0,0,4,0,3.06,3.06,0,0,0,.71-2.2v-9.22a.54.54,0,0,1,.16-.41.61.61,0,0,1,.4-.16h2.93a.57.57,0,0,1,.39.16.52.52,0,0,1,.17.41v9.24a6.77,6.77,0,0,1-.83,3.54,5,5,0,0,1-2.34,2.06A8.71,8.71,0,0,1,434.35,193.35Z" />
            <path class="cls-1"
                d="M444.21,193.12a.53.53,0,0,1-.57-.56V177.84a.54.54,0,0,1,.16-.41.57.57,0,0,1,.41-.16h6.87a7.86,7.86,0,0,1,3.18.55,3.84,3.84,0,0,1,1.84,1.55,4.58,4.58,0,0,1,.59,2.39,3.31,3.31,0,0,1-.3,1.44,3.62,3.62,0,0,1-.74,1,3.41,3.41,0,0,1-.83.58,4.08,4.08,0,0,1,1.53,1.34,3.65,3.65,0,0,1,.66,2.17,4.79,4.79,0,0,1-.66,2.57,4.35,4.35,0,0,1-1.94,1.66,7.65,7.65,0,0,1-3.13.57Zm3.47-9.55h2.95a1.85,1.85,0,0,0,1.39-.48,1.69,1.69,0,0,0,.46-1.22,1.65,1.65,0,0,0-.46-1.19,1.88,1.88,0,0,0-1.39-.46h-2.95Zm0,6.61h3.15a1.84,1.84,0,0,0,1.47-.57,1.88,1.88,0,0,0,.5-1.29,1.86,1.86,0,0,0-.51-1.33,1.92,1.92,0,0,0-1.46-.55h-3.15Z" />
            <path class="cls-1"
                d="M459.63,193.12a.56.56,0,0,1-.41-.15.6.6,0,0,1-.16-.41V177.84a.58.58,0,0,1,.16-.41.57.57,0,0,1,.41-.16h3a.61.61,0,0,1,.4.16.55.55,0,0,1,.17.41v11.87H470a.57.57,0,0,1,.42.16.61.61,0,0,1,.17.42v2.27a.57.57,0,0,1-.17.41.6.6,0,0,1-.42.15Z" />
            <path class="cls-1"
                d="M472.63,193.12a.55.55,0,0,1-.4-.15.56.56,0,0,1-.16-.41V177.84a.54.54,0,0,1,.16-.41.56.56,0,0,1,.4-.16h3a.56.56,0,0,1,.4.16.54.54,0,0,1,.16.41v14.72a.56.56,0,0,1-.16.41.55.55,0,0,1-.4.15Z" />
            <path class="cls-1"
                d="M485.4,193.35a8.71,8.71,0,0,1-3.67-.7,5.47,5.47,0,0,1-2.37-2.06,6.93,6.93,0,0,1-.93-3.38c0-.62,0-1.28,0-2s0-1.39,0-2a6.72,6.72,0,0,1,.95-3.34,5.46,5.46,0,0,1,2.39-2.08,8.61,8.61,0,0,1,3.63-.71,9.67,9.67,0,0,1,2.75.37,6.76,6.76,0,0,1,2.2,1.09,4.92,4.92,0,0,1,2,4,.36.36,0,0,1-.12.34.5.5,0,0,1-.35.14h-3a.65.65,0,0,1-.45-.13.86.86,0,0,1-.27-.46,2.61,2.61,0,0,0-1-1.64,3.2,3.2,0,0,0-1.75-.44,2.73,2.73,0,0,0-2,.69,3.32,3.32,0,0,0-.79,2.3c0,1.23,0,2.5,0,3.8a3.32,3.32,0,0,0,.79,2.3,2.73,2.73,0,0,0,2,.69,3.27,3.27,0,0,0,1.76-.45,2.57,2.57,0,0,0,1-1.63.83.83,0,0,1,.25-.47.82.82,0,0,1,.47-.12h3a.49.49,0,0,1,.35.13.37.37,0,0,1,.12.34,5,5,0,0,1-.55,2.28,5.06,5.06,0,0,1-1.48,1.72,6.76,6.76,0,0,1-2.2,1.09A9.67,9.67,0,0,1,485.4,193.35Z" />
            <path class="cls-1"
                d="M505.26,193.35a8.68,8.68,0,0,1-3.55-.67,5,5,0,0,1-2.36-2.06,6.87,6.87,0,0,1-.83-3.54v-9.24a.54.54,0,0,1,.16-.41.56.56,0,0,1,.4-.16H502a.56.56,0,0,1,.4.16.54.54,0,0,1,.16.41v9.22a3.06,3.06,0,0,0,.71,2.2,2.66,2.66,0,0,0,2,.74,2.61,2.61,0,0,0,2-.74,3.06,3.06,0,0,0,.71-2.2v-9.22a.55.55,0,0,1,.17-.41.58.58,0,0,1,.4-.16h2.93a.57.57,0,0,1,.39.16.55.55,0,0,1,.17.41v9.24a6.87,6.87,0,0,1-.83,3.54,5,5,0,0,1-2.35,2.06A8.67,8.67,0,0,1,505.26,193.35Z" />
            <path class="cls-1"
                d="M515.11,193.12a.52.52,0,0,1-.56-.56V177.84a.58.58,0,0,1,.15-.41.6.6,0,0,1,.41-.16h2.39a.75.75,0,0,1,.55.17,1.23,1.23,0,0,1,.22.26l5.5,8.72v-8.58a.54.54,0,0,1,.16-.41.56.56,0,0,1,.4-.16H527a.56.56,0,0,1,.4.16.54.54,0,0,1,.16.41v14.72a.53.53,0,0,1-.16.39.5.5,0,0,1-.4.17h-2.42a.67.67,0,0,1-.52-.18,1.63,1.63,0,0,1-.22-.25l-5.5-8.37v8.24a.56.56,0,0,1-.16.41.55.55,0,0,1-.4.15Z" />
            <path class="cls-1"
                d="M530.87,193.12a.52.52,0,0,1-.56-.56V177.84a.58.58,0,0,1,.15-.41.6.6,0,0,1,.41-.16h3a.55.55,0,0,1,.57.57v14.72a.6.6,0,0,1-.16.41.58.58,0,0,1-.41.15Z" />
            <path class="cls-1"
                d="M541.67,193.12a.85.85,0,0,1-.61-.2,1.14,1.14,0,0,1-.31-.48L536.15,178a.53.53,0,0,1,0-.2.46.46,0,0,1,.15-.33.47.47,0,0,1,.35-.15h2.79a.77.77,0,0,1,.57.21.86.86,0,0,1,.24.38l3.18,10.46,3.2-10.46a1.36,1.36,0,0,1,.26-.38.73.73,0,0,1,.56-.21h2.79a.47.47,0,0,1,.35.15.46.46,0,0,1,.15.33.53.53,0,0,1-.05.2L546,192.44a1.22,1.22,0,0,1-.3.48.84.84,0,0,1-.62.2Z" />
            <path class="cls-1"
                d="M552.9,193.12a.58.58,0,0,1-.41-.15.56.56,0,0,1-.16-.41V177.84a.54.54,0,0,1,.16-.41.58.58,0,0,1,.41-.16h10.53a.56.56,0,0,1,.4.16.54.54,0,0,1,.16.41V180a.56.56,0,0,1-.16.41.55.55,0,0,1-.4.15h-7.2v3.06h6.7a.53.53,0,0,1,.4.17.57.57,0,0,1,.16.42v2a.57.57,0,0,1-.16.4.52.52,0,0,1-.4.16h-6.7v3.15h7.38a.56.56,0,0,1,.4.16.54.54,0,0,1,.16.41v2.13a.56.56,0,0,1-.16.41.55.55,0,0,1-.4.15Z" />
            <path class="cls-1"
                d="M566.85,193.12a.55.55,0,0,1-.4-.15.56.56,0,0,1-.16-.41V177.84a.54.54,0,0,1,.16-.41.56.56,0,0,1,.4-.16H573a7.13,7.13,0,0,1,4.59,1.35,5.17,5.17,0,0,1,.91,6.53,4.89,4.89,0,0,1-2.05,1.68l3.12,5.57a.61.61,0,0,1,.06.25.45.45,0,0,1-.14.33.47.47,0,0,1-.35.14h-3a.86.86,0,0,1-.63-.21,1.53,1.53,0,0,1-.29-.4l-2.57-5h-2.33v5a.59.59,0,0,1-.15.41.58.58,0,0,1-.41.15Zm3.47-8.78h2.62a2.2,2.2,0,0,0,1.59-.52,1.94,1.94,0,0,0,.53-1.43,2,2,0,0,0-.51-1.43,2.11,2.11,0,0,0-1.61-.54h-2.62Z" />
            <path class="cls-1"
                d="M587.3,193.35a9.26,9.26,0,0,1-3.74-.65A5.41,5.41,0,0,1,581.3,191a4,4,0,0,1-.81-2.22.46.46,0,0,1,.15-.33.47.47,0,0,1,.35-.15h2.84a.81.81,0,0,1,.48.12,1.06,1.06,0,0,1,.31.29,2.74,2.74,0,0,0,.5.66,2.48,2.48,0,0,0,.86.51,3.92,3.92,0,0,0,1.32.19,3.83,3.83,0,0,0,2-.41,1.24,1.24,0,0,0,.67-1.11,1.06,1.06,0,0,0-.36-.82,3.18,3.18,0,0,0-1.16-.59,19.33,19.33,0,0,0-2.13-.53,13,13,0,0,1-2.92-.95,4.43,4.43,0,0,1-1.84-1.51,4.14,4.14,0,0,1-.63-2.35,4.1,4.1,0,0,1,.78-2.46,5,5,0,0,1,2.17-1.7,8.2,8.2,0,0,1,3.32-.61,8.39,8.39,0,0,1,2.73.4,6.47,6.47,0,0,1,2,1.09,5.08,5.08,0,0,1,1.23,1.44,3.34,3.34,0,0,1,.44,1.48.49.49,0,0,1-.14.33.43.43,0,0,1-.34.15h-3a.94.94,0,0,1-.43-.09.74.74,0,0,1-.31-.3,1.61,1.61,0,0,0-.71-.87,2.73,2.73,0,0,0-1.5-.37,2.83,2.83,0,0,0-1.55.35,1.27,1.27,0,0,0-.25,1.87,2.58,2.58,0,0,0,1,.59c.47.16,1.12.33,2,.52a13.94,13.94,0,0,1,3.31,1,4.15,4.15,0,0,1,1.85,1.49,4.62,4.62,0,0,1-.28,5,5.37,5.37,0,0,1-2.4,1.71A9.84,9.84,0,0,1,587.3,193.35Z" />
            <path class="cls-1"
                d="M596.45,193.12a.55.55,0,0,1-.4-.15.56.56,0,0,1-.16-.41V177.84a.54.54,0,0,1,.16-.41.56.56,0,0,1,.4-.16h3a.56.56,0,0,1,.4.16.54.54,0,0,1,.16.41v14.72a.56.56,0,0,1-.16.41.55.55,0,0,1-.4.15Z" />
            <path class="cls-1"
                d="M606.78,193.12a.58.58,0,0,1-.41-.15.59.59,0,0,1-.15-.41V180.83h-4a.53.53,0,0,1-.4-.17.55.55,0,0,1-.16-.4v-2.42a.54.54,0,0,1,.16-.41.56.56,0,0,1,.4-.16h12.13a.55.55,0,0,1,.57.57v2.42a.59.59,0,0,1-.16.4.55.55,0,0,1-.41.17h-4v11.73a.56.56,0,0,1-.16.41.55.55,0,0,1-.4.15Z" />
            <path class="cls-1"
                d="M621.12,193.12a.56.56,0,0,1-.39-.15.53.53,0,0,1-.17-.41v-4.87L615.33,178c0-.05,0-.09-.05-.13a.43.43,0,0,1,0-.12.5.5,0,0,1,.49-.48h2.82a.78.78,0,0,1,.53.17.83.83,0,0,1,.24.31l3.25,5.84,3.24-5.84a1.28,1.28,0,0,1,.26-.31.8.8,0,0,1,.53-.17h2.82a.45.45,0,0,1,.34.15.48.48,0,0,1,.13.33.45.45,0,0,1,0,.12l0,.13-5.26,9.69v4.87a.59.59,0,0,1-.15.41.58.58,0,0,1-.41.15Z" />
            <path class="cls-1 "
                d="M165.41,137.89c-9.89-2.38-20.24-2.31-30.12-4.82-1.06-4.86-.45-9.88-.59-14.8,11.3-7.16,19.9-19,21.12-32.56.9-11.95.16-24,.42-35.95-.38-1.86,1.76-2.26,3-2.82,10-3.85,19.92-8,29.94-11.82,2.91-.9,3.6-5.21.68-6.58Q153.19,14.61,116.51.6a8.14,8.14,0,0,0-6.08,0c-23.54,9.08-47.15,18-70.73,27A12.21,12.21,0,0,0,35.63,30c-.89,2.19,1,4.53,2.9,5.4,4.94,2,9.93,3.77,14.75,6.05-.2,13.45.14,26.93-.15,40.38-.13,4.68-4.93,6.47-7.55,9.6.93,1.9,1.85,4.51,4.49,4.09,5.53-2,10.08-7.45,10.1-13.54.13-12.59,0-25.18.06-37.77C63.88,45.38,67.39,47,71,48.29c.2,12.84-.5,25.7.41,38.5,1.27,13.22,9.8,24.64,20.82,31.58-.17,4.53.44,9.14-.36,13.62-.32,1.61-2.41,1.59-3.66,2-7.24,1-14.48,2-21.72,2.89-10.58,1.57-21,7.53-25.86,17.33-6.11,10.56-5.32,23.2-5,34.94.93,3.65,6,2.58,6.59-.66.6-5.14-.08-10.34.41-15.51.33-9.33,4.4-18.85,12.2-24.32,9-6.13,20.29-5.25,30.53-7.06,1.58,11.06,11.53,18.84,22,20.79,14.48,3.28,31.68-5.65,34.37-20.94,6.18,1.11,12.44,1.72,18.65,2.55a27.22,27.22,0,0,1,21.35,17.2c3.73,8.71,2.29,18.33,2.72,27.51.55,3.9,7.33,3.23,7.05-.65.33-10.64.48-21.82-4.09-31.69A33,33,0,0,0,165.41,137.89ZM149,61.78a62.62,62.62,0,0,0-25.54-8.26c-3.74-.57-7.13,1.56-10.53,2.74-2.35-1-4.54-2.71-7.15-2.87C96,53.76,86.55,57.1,78,61.73c0-5.15-.25-10.32.08-15.46,1.61-2.81,5-3.77,7.66-5.23a69.37,69.37,0,0,1,57.83,1.12c1.86,1.18,4.25,2.05,5.26,4.17C149.15,51.47,148.86,56.63,149,61.78ZM72.22,41c-8-2.9-15.73-6.3-23.6-9.39,20.57-7.52,40.95-15.55,61.45-23.28,1.59-.54,3.3-1.7,5-.72q27.39,10.41,54.75,20.88a39.37,39.37,0,0,0,9.15,3c-8.08,3.35-16.31,6.36-24.28,9.94-11.39-9.92-27.09-13-41.79-13.28-14,.56-29.05,3.35-40,12.7Zm55.46,80.36c.11,4.3-.36,8.7.78,12.92.9,3.19,4.94,4.24,6.1,7.22-3.9,13.29-21.47,18-32.8,11.28-4.27-2.65-9.34-6.71-9-12.22,2.21-2.28,5.39-4,6.07-7.37.71-3.85.25-7.79.3-11.67a57.83,57.83,0,0,0,14.66,2.4c3.13,0,4.16-4.33,2.12-6.33-3.43-1.39-7.27-.83-10.8-1.79-9.67-2.58-18.56-8.91-22.93-18.08-4.71-8.21-4.31-18-4.26-27.1,6.66-5.86,15.51-8.3,24-9.87,3.94-1.11,7.3,1.89,11,2.69,3.8.15,6.83-3.4,10.66-2.86,9.09,1.17,18.13,4.22,25.35,10-.18,7.49.67,15.25-2,22.42A41.86,41.86,0,0,1,140,104.64c-3.74,4.67-9.16,7.43-14.34,10.16C122.88,116.8,124.56,120.91,127.68,121.39Z" />
            <path class="cls-1 bounce "
                d="M226.64,200.19c-1.59-2-4.47-1.49-6.71-1.76q0-61.65,0-123.31c.11-8-7.09-15.08-15.07-15-12.58.08-25.2-.39-37.77.19a3.86,3.86,0,0,0-3.72,4.25A2.72,2.72,0,0,0,165.45,67c5.19.28,16.31.13,22.14.11a2.23,2.23,0,0,0,.36,0c5.62.07,11.24-.21,16.85.11,4.73.06,8.31,4.61,8.16,9.15q0,61.11,0,122.23c-21.36,0-42.73,0-64.1,0a17.26,17.26,0,0,0-5.22.57c-2.21,1.38-1.53,4.26-1.8,6.43H85.09c-.25-2,.17-4.28-1.11-6-1.35-1.12-3.13-1-4.75-1-17,0-34,.07-51.05,0,.1-38.57,0-77.16.06-115.74a1.46,1.46,0,0,1,1.43-1.46c4.44,0,8.89.19,13.32-.14,3.61-.08,4-5.59.82-6.75-6.44-.16-12.91-.22-19.34,0a3,3,0,0,0-3.21,3.2c-.07,40.29,0,80.59,0,120.89q-3.64,0-7.26,0c0-40.77-.06-81.52,0-122.28a8.63,8.63,0,0,1,8-9.06c6.52-.39,13.06-.14,19.6-.14h.45a3.87,3.87,0,0,0,3.64-2.44,3.26,3.26,0,0,0-.92-3.87c-3.89-1.39-8.16-.45-12.2-.71-6.89.14-15-1.21-20.43,4.06C8.44,67,6.92,71.72,7,76.29q0,61.06,0,122.14c-2.41.23-6.08-.37-6.87,2.69C-.61,208.68,2,217,8.2,221.73c6,4.4,13.71,5.13,20.9,5q84.95,0,169.89,0c8.57.36,17.82-2.5,23.24-9.49C225.82,212.45,227.86,206.13,226.64,200.19Zm-18.12,18.23c-5.69,1.92-11.77,1.31-17.67,1.39q-81.46,0-162.94,0c-5.94-.12-12.72-.71-17-5.41-2.51-2.27-3-5.7-3.86-8.8,23.59-.14,47.19,0,70.79-.06,0,.59,0,1.19.06,1.79a5.59,5.59,0,0,0,5.73,5.5h.06c20.58,0,41.16,0,61.73-.05,3.68-.06,3.62-4.58,3.64-7.25,23.62.07,47.22-.08,70.82.08C218.7,211.51,214.44,216.83,208.52,218.42Z" />
            <path class="cls-1 bounce"
                d="M163.62,76c1.08-1.79,3.39-1.49,5.17-1.63,10.47,0,20.94,0,31.42,0a9.27,9.27,0,0,1,2.63.21A3.69,3.69,0,0,1,205.72,78c.67,18.84.05,37.71.26,56.56q0,25.65,0,51.28a6.64,6.64,0,0,1-.4,2.74,3.57,3.57,0,0,1-6,1.35,3.81,3.81,0,0,1-.87-3c-.1-34.62,0-69.24-.05-103.87A1.74,1.74,0,0,0,197,81.33c-10.2-.08-20.39.11-30.57-.07C163.86,81.19,162.5,78,163.62,76Z" />
            <rect class="cls-1" x="258.1" y="35.11" width="12.38" height="177.51" rx="1.8" />
        </g>
    </g>
</svg>
